PathFileType	4	(X/Y/Z)	C:/Users/Carlo/Dropbox/Carlos/SARAH/CongressoMarcha2025/WorkshopOpenSim/C3D/Caso03/pyCGM2 Walking02.c3d.trc
DataRate	CameraRate	NumFrames	NumMarkers	Units	OrigDataRate	OrigDataStartFrame	OrigNumFrames
100.000000	100.000000	2	163	mm	100.000000	191	510
Frame#	Time	PELO			PELA			PELL			PELP			LFEO			LFEA			LFEL			LFEP			LTIO			LTIA			LTIL			LTIP			LFOO			LFOA			LFOL			LFOP			LTOO			LTOA			LTOL			LTOP			RFEO			RFEA			RFEL			RFEP			RTIO			RTIA			RTIL			RTIP			RFOO			RFOA			RFOL			RFOP			RTOO			RTOA			RTOL			RTOP			PELVIS_CGM_2.3O			PELVIS_CGM_2.3A			PELVIS_CGM_2.3L			PELVIS_CGM_2.3P			LFEMUR_CGM_2.3O			LFEMUR_CGM_2.3A			LFEMUR_CGM_2.3L			LFEMUR_CGM_2.3P			LTIBIA_CGM_2.3O			LTIBIA_CGM_2.3A			LTIBIA_CGM_2.3L			LTIBIA_CGM_2.3P			LFOOT_CGM_2.3O			LFOOT_CGM_2.3A			LFOOT_CGM_2.3L			LFOOT_CGM_2.3P			LTOES_CGM_2.3O			LTOES_CGM_2.3A			LTOES_CGM_2.3L			LTOES_CGM_2.3P			RFEMUR_CGM_2.3O			RFEMUR_CGM_2.3A			RFEMUR_CGM_2.3L			RFEMUR_CGM_2.3P			RTIBIA_CGM_2.3O			RTIBIA_CGM_2.3A			RTIBIA_CGM_2.3L			RTIBIA_CGM_2.3P			RFOOT_CGM_2.3O			RFOOT_CGM_2.3A			RFOOT_CGM_2.3L			RFOOT_CGM_2.3P			RTOES_CGM_2.3O			RTOES_CGM_2.3A			RTOES_CGM_2.3L			RTOES_CGM_2.3P			LASI			RASI			LPSI			RPSI			LTHI			LTHAP			LTHAD			LKNE			LTIB			LTIAP			LTIAD			LANK			LHEE			LTOE			RTHI			RTHAP			RTHAD			RKNE			RTIB			RTIAP			RTIAD			RANK			RHEE			RTOE			LHipAngles			LKneeAngles			LAbsAnkleAngle			LAnkleAngles			RHipAngles			RKneeAngles			RAnkleAngles			RAbsAnkleAngle			LPelvisAngles			RPelvisAngles			LFootProgressAngles			RFootProgressAngles			LHipAngles_CGM_2.3			LKneeAngles_CGM_2.3			LAnkleAngles_CGM_2.3			RHipAngles_CGM_2.3			RKneeAngles_CGM_2.3			RAnkleAngles_CGM_2.3			LFootProgressAngles_CGM_2.3			RFootProgressAngles_CGM_2.3			LPelvisAngles_CGM_2.3			RPelvisAngles_CGM_2.3			LHipPower			LKneePower			LAnklePower			RHipPower			RKneePower			RAnklePower			LHipPower_CGM_2.3			LKneePower_CGM_2.3			LAnklePower_CGM_2.3			RHipPower_CGM_2.3			RKneePower_CGM_2.3			RAnklePower_CGM_2.3			RGroundReactionForce			RNormalisedGRF			LAnkleForce			RAnkleForce			RKneeForce			LKneeForce			RHipForce			LHipForce			LHipForce_CGM_2.3			LKneeForce_CGM_2.3			LAnkleForce_CGM_2.3			RHipForce_CGM_2.3			RKneeForce_CGM_2.3			RAnkleForce_CGM_2.3			RGroundReactionMoment			LAnkleMoment			RAnkleMoment			RKneeMoment			LKneeMoment			RHipMoment			LHipMoment			LHipMoment_CGM_2.3			LKneeMoment_CGM_2.3			LAnkleMoment_CGM_2.3			RHipMoment_CGM_2.3			RKneeMoment_CGM_2.3			RAnkleMoment_CGM_2.3			LHJC_CGM_2.3			LKJC_CGM_2.3			RHJC_CGM_2.3			RKJC_CGM_2.3			LAJC_CGM_2.3			RAJC_CGM_2.3			
		X1	Y1	Z1	X2	Y2	Z2	X3	Y3	Z3	X4	Y4	Z4	X5	Y5	Z5	X6	Y6	Z6	X7	Y7	Z7	X8	Y8	Z8	X9	Y9	Z9	X10	Y10	Z10	X11	Y11	Z11	X12	Y12	Z12	X13	Y13	Z13	X14	Y14	Z14	X15	Y15	Z15	X16	Y16	Z16	X17	Y17	Z17	X18	Y18	Z18	X19	Y19	Z19	X20	Y20	Z20	X21	Y21	Z21	X22	Y22	Z22	X23	Y23	Z23	X24	Y24	Z24	X25	Y25	Z25	X26	Y26	Z26	X27	Y27	Z27	X28	Y28	Z28	X29	Y29	Z29	X30	Y30	Z30	X31	Y31	Z31	X32	Y32	Z32	X33	Y33	Z33	X34	Y34	Z34	X35	Y35	Z35	X36	Y36	Z36	X37	Y37	Z37	X38	Y38	Z38	X39	Y39	Z39	X40	Y40	Z40	X41	Y41	Z41	X42	Y42	Z42	X43	Y43	Z43	X44	Y44	Z44	X45	Y45	Z45	X46	Y46	Z46	X47	Y47	Z47	X48	Y48	Z48	X49	Y49	Z49	X50	Y50	Z50	X51	Y51	Z51	X52	Y52	Z52	X53	Y53	Z53	X54	Y54	Z54	X55	Y55	Z55	X56	Y56	Z56	X57	Y57	Z57	X58	Y58	Z58	X59	Y59	Z59	X60	Y60	Z60	X61	Y61	Z61	X62	Y62	Z62	X63	Y63	Z63	X64	Y64	Z64	X65	Y65	Z65	X66	Y66	Z66	X67	Y67	Z67	X68	Y68	Z68	X69	Y69	Z69	X70	Y70	Z70	X71	Y71	Z71	X72	Y72	Z72	X73	Y73	Z73	X74	Y74	Z74	X75	Y75	Z75	X76	Y76	Z76	X77	Y77	Z77	X78	Y78	Z78	X79	Y79	Z79	X80	Y80	Z80	X81	Y81	Z81	X82	Y82	Z82	X83	Y83	Z83	X84	Y84	Z84	X85	Y85	Z85	X86	Y86	Z86	X87	Y87	Z87	X88	Y88	Z88	X89	Y89	Z89	X90	Y90	Z90	X91	Y91	Z91	X92	Y92	Z92	X93	Y93	Z93	X94	Y94	Z94	X95	Y95	Z95	X96	Y96	Z96	X97	Y97	Z97	X98	Y98	Z98	X99	Y99	Z99	X100	Y100	Z100	X101	Y101	Z101	X102	Y102	Z102	X103	Y103	Z103	X104	Y104	Z104	X105	Y105	Z105	X106	Y106	Z106	X107	Y107	Z107	X108	Y108	Z108	X109	Y109	Z109	X110	Y110	Z110	X111	Y111	Z111	X112	Y112	Z112	X113	Y113	Z113	X114	Y114	Z114	X115	Y115	Z115	X116	Y116	Z116	X117	Y117	Z117	X118	Y118	Z118	X119	Y119	Z119	X120	Y120	Z120	X121	Y121	Z121	X122	Y122	Z122	X123	Y123	Z123	X124	Y124	Z124	X125	Y125	Z125	X126	Y126	Z126	X127	Y127	Z127	X128	Y128	Z128	X129	Y129	Z129	X130	Y130	Z130	X131	Y131	Z131	X132	Y132	Z132	X133	Y133	Z133	X134	Y134	Z134	X135	Y135	Z135	X136	Y136	Z136	X137	Y137	Z137	X138	Y138	Z138	X139	Y139	Z139	X140	Y140	Z140	X141	Y141	Z141	X142	Y142	Z142	X143	Y143	Z143	X144	Y144	Z144	X145	Y145	Z145	X146	Y146	Z146	X147	Y147	Z147	X148	Y148	Z148	X149	Y149	Z149	X150	Y150	Z150	X151	Y151	Z151	X152	Y152	Z152	X153	Y153	Z153	X154	Y154	Z154	X155	Y155	Z155	X156	Y156	Z156	X157	Y157	Z157	X158	Y158	Z158	X159	Y159	Z159	X160	Y160	Z160	X161	Y161	Z161	X162	Y162	Z162	X163	Y163	Z163	

192	1.91	-835.5297241210942	861.3292846679692	-27.21522331237794	-675.8779907226565	840.043823242188	-8.68112945556641	-817.2404174804692	858.264038085938	-188.2784576416016	-814.033569335938	1022.023986816407	-27.83249282836915	-676.3865356445315	477.0606079101565	-97.13553619384771	-298.9454650878907	625.6550292968752	-167.6243286132813	-737.9187011718752	441.0032958984377	-502.6282348632815	-828.9078979492192	859.3305053710942	-107.9832153320313	-535.4226684570315	99.37853240966803	-59.54429626464847	-184.8600158691407	220.0900115966798	-161.3250885009766	-619.158874511719	31.39418792724611	-428.5850830078127	-669.2839355468752	458.0310058593752	-95.24150085449222	-411.3985290527346	129.3810577392579	-85.7910079956055	-474.6188049316409	298.3668823242189	-109.2657012939454	-424.6866760253909	99.54539489746099	-264.780731201172	-581.4887695312502	68.90213775634768	-63.08241271972659	-354.7017517089845	149.5406951904297	-93.36051940917972	-375.7751464843751	205.8692932128907	-101.185417175293	-359.1311035156251	139.5954895019532	-153.0237731933594	-411.3984985351565	129.3810729980469	-85.79103851318362	-981.9331665039067	462.443054199219	34.03501510620119	-605.882751464844	324.4079895019532	176.0247955322266	-841.6622924804692	433.0130310058596	-366.0732727050782	-842.1516723632817	863.3281860351567	53.55276489257815	-1190.784790039063	116.6538391113282	-3.100240707397463	-883.9875488281255	-81.82954406738284	119.647445678711	-1067.986572265625	81.54388427734378	-366.7966918945314	-992.3327026367192	445.2246704101565	32.18592834472658	-1076.044921875	65.40259552001956	28.56700134277345	-1021.025512695313	237.4355468750001	40.30342864990236	-1044.515380859375	67.47724914550784	-149.6514282226563	-1245.570556640625	121.621566772461	-0.7702140808105473	-1019.536254882813	46.66294097900392	38.34605789184572	-1001.196472167969	104.0072479248047	42.25817871093751	-1009.026428222657	47.35448837280275	-21.06006622314454	-1076.044799804688	65.40257263183597	28.56700325012208	-842.9899902343755	879.370971679688	-33.59189987182619	-684.9536132812502	858.4231567382817	-14.73544120788575	-824.5058593750005	875.324584960938	-193.0028228759767	-821.7128906250005	1038.476928710938	-35.16342544555665	-686.8770141601565	466.2909851074221	-98.80619812011724	-277.0056457519532	614.2200927734377	-111.7952575683594	-694.129577636719	448.145935058594	-534.3110351562502	-835.1980590820317	875.9665527343755	-113.4050598144532	-534.4899902343752	95.87740325927737	-58.25350189208987	-185.2027282714844	222.6085815429689	-213.2047729492189	-664.2941894531252	2.041206359863282	-427.6014709472659	-686.876159667969	466.2910461425784	-98.80559539794928	-407.3450012207034	134.6170043945313	-62.31090164184573	-477.6609191894534	305.315887451172	-82.5740661621094	-422.3426208496096	106.7154083251954	-245.3125610351564	-578.586853027344	66.96772766113284	-37.96277618408205	-350.2640075683595	157.166000366211	-70.42639923095706	-373.7026367187501	214.0655670166017	-77.180778503418	-355.2632141113282	147.8654785156251	-131.4268798828126	-407.3445739746096	134.6162719726563	-62.31036758422854	-985.2260131835942	461.7070007324221	35.41809844970705	-580.0759887695315	329.3291625976564	152.9766998291016	-870.036254882813	435.8602294921877	-390.6731262207034	-850.781860351563	882.775268554688	46.221736907959	-1193.609985351563	123.577003479004	-5.001200199127199	-873.652709960938	-87.05672454833987	107.4786911010743	-1077.021728515625	97.25945281982428	-385.928405761719	-985.2222290039067	461.7068786621096	35.41811752319337	-1068.849975585938	67.92630004882815	5.588570117950441	-1008.353393554688	248.9749755859376	19.18231964111329	-1032.86083984375	70.01231384277347	-182.3573760986329	-1246.805541992188	129.8962860107422	-27.79966354370119	-1009.530090332032	47.2696990966797	16.71800041198731	-989.3645629882817	107.6191864013672	21.24924468994141	-997.5337524414067	47.9650344848633	-45.9305877685547	-1068.848510742188	67.92633819580081	5.588601112365724	-768.2700805664067	941.0748901367192	-153.4035797119141	-797.9251098632817	946.045043945313	107.7509002685547	-968.0097045898442	963.8120727539067	-103.320541381836	-979.6281738281255	974.1022338867192	-2.542487144470216	-744.779479980469	622.4572753906252	-192.8574829101564	-702.309020996094	768.4657592773442	-129.3284454345704	-649.6879882812502	625.1794433593752	-106.2404251098633	-685.0546875000002	471.9810791015627	-154.2587280273438	-624.3801269531252	240.2637481689454	-132.4626617431641	-602.073913574219	399.6098632812502	-73.314567565918	-550.4153442382815	232.1889038085939	-54.62844467163089	-549.4251708984377	83.08209228515628	-96.79151916503912	-568.597106933594	45.68507385253908	-45.01536560058595	-395.5652770996096	114.7370147705079	-71.72552490234378	-943.3618164062505	675.9602661132815	134.2026367187501	-802.909790039063	725.0344238281252	91.91861724853518	-865.5100097656255	565.2337036132815	66.58633422851565	-1000.910705566407	466.4246826171877	88.16676330566409	-1108.081787109375	315.038299560547	87.29764556884768	-1041.836303710938	319.0909729003907	2.481607913970948	-1109.33740234375	199.5128784179689	0.05187394097447398	-1210.567993164063	112.7675323486329	34.8803176879883	-1258.56201171875	103.555648803711	-19.59407997131348	-1080.748779296875	44.20603561401369	13.34960460662843	-1.90084207057953	-15.47531127929688	29.33898544311525	3.542025327682497	-5.574663162231447	1.917033195495606	0	0	-0.2186777442693711	-1.998946905136109	19.0925464630127	-0.2313946634531022	1.510140657424928	-13.06290912628175	-11.85032558441162	-1.416194438934327	-0.08267200738191607	12.08332252502442	-3.509158849716188	12.20228004455567	13.74784564971925	0	0	13.43134498596192	-0.2181508392095567	6.564356327056888	7.619235038757328	0.2181508392095567	-6.564356327056888	7.619235038757328	7.471734523773197	-7.169775009155277	-109.5738220214844	3.767718553543093	-9.327986717224125	-71.65318298339847	-1.696699976921082	-7.4320502281189	27.4974994659424	3.935339927673342	-20.9655990600586	-2.336189985275269	-0.4709760248661043	15.18369960784913	-0.03969350084662439	0.7595580220222478	-8.684040069580082	-10.25119972229004	0.6354979872703554	-1.826750159263612	14.5752992630005	-2.185120105743409	7.263539791107181	13.33409976959229	-6.318260192871097	-172.4669952392579	-68.44390106201175	-175.8630065917969	10.04769992828369	70.80019378662112	181.4440002441407	6.614089965820316	-172.5000000000001	-181.4440002441407	-6.614089965820316	-172.5000000000001	0	-0.05987413972616198	0	0	0.5576440095901491	0	0	0.002731187734752894	0	nan	nan	nan	nan	nan	nan	nan	nan	nan	nan	nan	nan	nan	nan	nan	nan	nan	nan	nan	nan	nan	nan	nan	nan	nan	nan	nan	nan	nan	nan	nan	nan	nan	0.008120379410684112	-0.2881106734275819	-0.003532348666340114	nan	nan	nan	nan	nan	nan	0.1047763749957085	0.5321232080459597	-0.4859669208526614	nan	nan	nan	-0.005463881418108942	1.627567291259767	0.2215652316808702	0.05721079930663112	1.852040052413941	-0.246279001235962	0.08382470160722735	0.708302974700928	0.4724380075931551	0.1462879925966263	-0.3246760070323945	0.1468140035867692	-0.04012859985232355	1.847569942474366	-0.5247070193290713	0.01451350003480912	0.8157719969749455	-0.07270400226116183	0.01034549996256829	-0.002142420038580895	0.1938419938087464	nan	nan	nan	-3.66141188167443e-16	-5.293606758117678	24.70429039001466	nan	nan	nan	nan	nan	nan	71.15483856201175	-6.184419631958011	-302.5722656250001	nan	nan	nan	50.94636154174808	-26.57601356506349	378.2911071777345	-2.502779960632325	-28.75000000000001	390.8429870605471	28.87290000915529	-6.458630084991459	-341.2839965820314	1.722970008850099	-6.451360225677494	32.05770111083986	23.86359977722169	3.758419990539553	-248.5379943847657	-12.4340000152588	0.9827600121498112	-29.97780036926271	-1.322229981422425	1.197280049324036	4.25824022293091	-835.1979980468755	875.9669799804692	-113.4049987792969	-686.8770141601565	466.2909851074221	-98.80619812011724	-850.7819824218755	882.775024414063	46.22150039672853	-985.2260131835942	461.7070007324221	35.41809844970705	-534.4899902343752	95.87740325927737	-58.25350189208987	-1193.609985351563	123.577003479004	-5.001200199127199	
193	1.92	-819.6790161132817	859.5642089843755	-27.135066986084	-660.070007324219	838.3964233398442	-8.104789733886722	-800.8713989257817	856.6293334960942	-188.1409912109376	-798.3131713867192	1020.276916503907	-27.56876754760744	-659.2164306640627	476.347595214844	-94.7751159667969	-281.6456604003907	626.2294921875002	-158.8825988769532	-713.8739013671877	440.3733520507815	-500.7954406738284	-812.796752929688	857.628784179688	-107.8828277587891	-526.0336914062502	96.1172714233399	-55.27170562744143	-171.3970336914063	210.5247802734376	-149.7007751464844	-603.564147949219	30.44323730468751	-426.0128479003909	-652.504821777344	457.1863708496096	-92.78440093994143	-401.1595458984377	122.5942535400391	-81.28041839599612	-459.5638122558596	293.2545471191407	-105.1151275634766	-414.8863830566409	92.89993286132815	-260.2605895996095	-572.9285888671877	66.93996429443362	-58.87314605712893	-343.9032287597657	141.1456604003907	-88.7495040893555	-363.371307373047	198.0324096679689	-96.69439697265631	-348.4788208007814	131.2475585937501	-148.4095611572266	-401.1595458984377	122.5942611694337	-81.28044128417972	-969.384643554688	461.0995178222659	35.86502838134767	-594.7164306640627	321.0257263183595	180.9059448242188	-827.0505981445317	428.0409851074221	-363.7373046875001	-826.561157226563	861.4996948242192	53.61268615722659	-1187.455200195313	120.5140533447266	-1.645040154457093	-886.375610351563	-86.03804016113284	123.4424896240235	-1063.485229492188	81.15845489501956	-365.0211486816407	-980.2304077148442	444.1604003906252	33.99945068359376	-1074.41845703125	65.0688171386719	29.06727027893068	-1013.422973632813	234.9946136474611	41.91314697265626	-1043.633178710938	67.50059509277347	-149.2767333984376	-1242.025146484375	127.3548126220704	0.9847640991210942	-1018.54931640625	44.30683898925783	38.42810440063478	-998.2175292968755	100.9487609863282	42.71004486083986	-1008.28759765625	45.11743545532228	-21.01987457275391	-1074.418334960938	65.06882476806643	29.06727600097658	-827.380981445313	877.640991210938	-33.92660140991212	-669.4138793945315	856.6638183593755	-14.53007316589356	-808.2272338867192	874.5314331054692	-193.2794952392579	-806.1818847656255	1036.76416015625	-34.48363494873048	-668.5739746093752	466.0000000000002	-96.32959747314459	-259.5109252929689	616.3983154296877	-106.0271911621094	-671.6643676757815	446.3254089355471	-531.8174438476565	-819.2528686523442	874.7047729492192	-113.7248840332032	-524.6939697265627	92.38159942626956	-54.1361999511719	-171.5310974121094	211.1695098876954	-206.5753173828126	-653.7158813476565	0.8866348266601567	-424.344665527344	-668.5744628906252	465.9995422363284	-96.32978820800787	-396.5379943847659	127.6710052490235	-57.84550094604495	-462.157653808594	300.1503906250001	-78.7730407714844	-411.6553955078127	99.71746826171881	-240.8294067382814	-569.6234130859377	64.72264099121097	-33.92952346801759	-338.842987060547	148.6540069580079	-65.817497253418	-360.7161865234376	206.1470794677736	-72.79333496093753	-343.8821105957032	139.336166381836	-126.8120651245118	-396.5380859375002	127.671241760254	-57.84551239013675	-972.7620239257817	460.3659973144534	37.19929885864259	-568.9639892578127	325.9986572265626	157.1285400390626	-856.146362304688	431.0568847656252	-388.2794494628909	-835.5089721679692	880.5764160156255	45.87155532836915	-1189.699951171875	127.7149887084962	-3.70112991333008	-876.2949218750005	-90.89179229736331	111.9680633544922	-1070.92724609375	96.97023010253912	-383.620574951172	-972.7636718750005	460.3662109375002	37.19917297363283	-1066.969970703125	67.58609771728518	6.113140106201175	-1000.016723632813	246.2707519531251	20.68380737304688	-1031.508056640625	69.63254547119143	-181.9333953857422	-1242.705444335938	136.0758972167969	-26.28184890747072	-1008.390075683594	44.75619888305665	16.91150093078614	-986.072387695313	104.3176879882813	21.76838493347169	-996.569458007813	45.43834686279298	-45.77061462402345	-1066.968505859375	67.58610534667972	6.113183021545414	-752.0819091796877	939.4555053710942	-153.042709350586	-782.5756835937505	944.2139282226567	108.0037002563477	-952.0921020507817	961.9696655273442	-103.8479156494141	-964.120971679688	972.258422851563	-3.096139430999758	-726.5996093750002	621.7879638671877	-190.8630981445313	-685.2816162109377	768.1479492187505	-127.7902908325196	-632.1320800781252	625.366394042969	-103.9750442504883	-666.924743652344	471.274108886719	-152.0362854003907	-610.4255371093752	238.5412597656251	-128.923324584961	-585.6359863281252	397.7285156250002	-70.30571746826175	-537.4110107421877	229.1797027587892	-50.96803665161136	-539.5828247070315	80.15689086914065	-92.83081817626956	-560.2276611328127	43.5835418701172	-41.46891021728517	-386.0534973144534	107.5083160400391	-67.13700103759768	-929.7897338867192	674.803894042969	134.8275909423829	-788.4910278320317	723.1782836914065	92.93000793457034	-852.0055541992192	563.331237792969	68.36460113525393	-988.6198730468755	465.5670471191409	89.86777496337893	-1099.783325195313	316.8491821289064	88.3840026855469	-1032.833129882813	318.6540527343751	4.391012191772463	-1103.769287109375	201.1368560791017	1.716234803199769	-1207.543701171875	117.2547302246094	36.23406219482423	-1255.556884765625	109.6360321044922	-18.32305335998536	-1079.8154296875	44.09691619873048	13.71902370452882	-1.63040041923523	-14.762433052063	29.51325798034669	3.319541215896608	-5.395610332489015	3.185663223266603	0	0	-0.6457495093345644	-1.651344776153565	18.01146888732911	-0.6790086627006533	1.118395209312439	-13.32429504394532	-12.27074909210206	-1.588516354560853	-0.1057921499013901	13.1970386505127	-3.695254325866701	12.94784927368165	13.22456073760987	0	0	12.88242530822755	-0.153265804052353	6.740890979766849	7.572753906250004	0.153265804052353	-6.740890979766849	7.572753906250004	7.585387706756595	-7.074157714843754	-107.9526519775391	4.119818687438967	-8.92572116851807	-69.61396026611331	-1.133939981460572	-7.318370342254642	27.87500000000001	3.746739864349367	-21.06909942626954	-0.7379329800605776	-0.3435049951076509	14.90959930419923	-0.2983259856700898	0.04825669899582866	-8.882149696350101	-10.58240032196045	0.6016820073127749	-2.032320022583009	15.71430015563966	-2.331039905548097	8.02842998504639	12.72560024261475	-6.52472019195557	-172.6009979248047	-70.01470184326175	-175.5690002441407	9.745829582214359	68.70749664306643	181.1099853515626	6.853859424591068	-172.4900054931641	-181.1099853515626	-6.853859424591068	-172.4900054931641	0	-0.03466546908020975	0	0	0.5067074894905093	0	0	0.009274248965084556	0	nan	nan	nan	nan	nan	nan	nan	nan	nan	nan	nan	nan	nan	nan	nan	nan	nan	nan	nan	nan	nan	nan	nan	nan	nan	nan	nan	nan	nan	nan	nan	nan	nan	0.01191039290279151	-0.1969390809535981	-0.0308591201901436	nan	nan	nan	nan	nan	nan	0.0989434570074082	0.6037217378616335	-0.2716893255710603	nan	nan	nan	0.03967734426259996	1.738801956176759	0.4336953163146975	0.117518000304699	1.917150020599366	-0.2635860145092012	0.1150519996881486	0.732901990413666	0.3999939858913424	0.1352960020303727	-0.2704510092735292	0.1541599929332734	-0.03397919982671739	1.906610012054444	-0.6168730258941653	0.02293349988758565	0.8669450283050542	-0.1112980023026467	0.0126432003453374	0.002295000012964011	0.207279995083809	nan	nan	nan	7.322823763348861e-16	-6.146126747131351	19.70803451538087	nan	nan	nan	nan	nan	nan	60.5345268249512	-6.78257513046265	-207.6367492675782	nan	nan	nan	67.18608093261722	-21.30525207519532	194.828582763672	41.9477005004883	-23.95380020141602	317.8559875488282	40.35449981689455	-6.968900203704838	-267.1050109863282	1.865749955177308	-6.918710231781009	29.01499938964845	25.15620040893556	5.16396999359131	-307.665985107422	-15.8031988143921	1.159260034561158	-22.96610069274903	-1.468150019645691	1.328860044479371	6.10401010513306	-819.2529907226567	874.7050170898442	-113.7249984741212	-668.5739746093752	466.0000000000002	-96.32959747314459	-835.5089721679692	880.577026367188	45.87189865112306	-972.7620239257817	460.3659973144534	37.19929885864259	-524.6939697265627	92.38159942626956	-54.1361999511719	-1189.699951171875	127.7149887084962	-3.70112991333008	
